# xmcd
#
# Track frame offsets:
#   150
#   12742
#   24593
#   36770
#   48967
#   61053
#   73084
#   85136
#   97644
#   109437
#   121922
#   134153
#   145688
#   158543
#   170440
#   182814
#   195776
#   207904
#   220636
#   232906
#   244081
#   255620
#   267661
#   279628
#   291585
#
# Disc length: 4064 seconds
#
# Revision: 1
# Processed by: cddbd v1.5.1PL0 Copyright (c) Steve Scherf et al.
# Submitted via: Media_Universe 3.0
#
DISCID=6b0fde19
DTITLE=Hank Williams 1946-1951 - Les Triomphes De La Country Music Vol.6
DYEAR=2002
DGENRE=Country
TTITLE0=Calling You
TTITLE1=Never Again (Will I Knock On Your Door)
TTITLE2=Honky Tonkin'
TTITLE3=Pan American
TTITLE4=I Saw The Light
TTITLE5=Move It On Over
TTITLE6=Rootie Tootie
TTITLE7=I Can't Get You Off My Mind
TTITLE8=The Blues Come Around
TTITLE9=I'm Long Gone Daddy
TTITLE10=Lovesick Blues
TTITLE11=Honky Tonk Blues
TTITLE12=Mind Your Own Business
TTITLE13=Lost Highway
TTITLE14=May You Never Be Alone
TTITLE15=You're Gonna Change (Or I'm Gonna Leave)
TTITLE16=I'm So Lonesome I Could Cry
TTITLE17=Wedding Bells
TTITLE18=I Just Don't Like This Kind Of Living
TTITLE19=My Bucket's Got A Hole In It
TTITLE20=Long Gone Lonesome Blues
TTITLE21=They'll Never Take Her Love From Me
TTITLE22=Cold Cold Heart
TTITLE23=Howlin' At The Moon
TTITLE24=Ramblin' Man
EXTD=YEAR: 2002
EXTT0=
EXTT1=
EXTT2=
EXTT3=
EXTT4=
EXTT5=
EXTT6=
EXTT7=
EXTT8=
EXTT9=
EXTT10=
EXTT11=
EXTT12=
EXTT13=
EXTT14=
EXTT15=
EXTT16=
EXTT17=
EXTT18=
EXTT19=
EXTT20=
EXTT21=
EXTT22=
EXTT23=
EXTT24=
PLAYORDER=
